<svg width="24" height="24" viewBox="0 0 24 24" fill="none" xmlns="http://www.w3.org/2000/svg">
<g clip-path="url(#clip0_187_1246)">
<path fill-rule="evenodd" clip-rule="evenodd" d="M12.7069 15.7069C12.5193 15.8943 12.265 15.9996 11.9999 15.9996C11.7347 15.9996 11.4804 15.8943 11.2929 15.7069L5.63585 10.0499C5.54034 9.95761 5.46416 9.84726 5.41175 9.72526C5.35934 9.60326 5.33176 9.47204 5.3306 9.33926C5.32945 9.20648 5.35475 9.0748 5.40503 8.9519C5.45531 8.829 5.52957 8.71735 5.62346 8.62346C5.71735 8.52957 5.829 8.45531 5.9519 8.40503C6.0748 8.35475 6.20648 8.32945 6.33926 8.3306C6.47204 8.33176 6.60325 8.35934 6.72526 8.41175C6.84726 8.46416 6.95761 8.54034 7.04985 8.63585L11.9999 13.5859L16.9499 8.63585C17.1385 8.4537 17.3911 8.3529 17.6533 8.35518C17.9155 8.35746 18.1663 8.46263 18.3517 8.64804C18.5371 8.83344 18.6423 9.08426 18.6445 9.34645C18.6468 9.60865 18.546 9.86125 18.3639 10.0499L12.7069 15.7069Z" fill="#363636"/>
</g>
<defs>
<clipPath id="clip0_187_1246">
<rect width="24" height="24" fill="white"/>
</clipPath>
</defs>
</svg>
