<svg width="24" height="24" viewBox="0 0 24 24" fill="none" xmlns="http://www.w3.org/2000/svg">
<path d="M12 20C10.1972 18.0151 7.75238 16.7296 5.09541 16.3692C4.79299 16.3357 4.51368 16.1914 4.31139 15.9642C4.1091 15.7368 3.99818 15.4427 4.00002 15.1384V5.23063C4.00001 5.05286 4.03851 4.87719 4.11287 4.71571C4.18724 4.55424 4.2957 4.41079 4.43079 4.29524C4.56351 4.18179 4.71884 4.09787 4.88649 4.04906C5.05412 4.00026 5.23023 3.98768 5.4031 4.01216C7.94377 4.43383 10.268 5.70003 12 7.60603V20Z" stroke="white" stroke-width="2" stroke-linecap="round" stroke-linejoin="round"/>
<path d="M12 20C13.8028 18.0151 16.2476 16.7296 18.9046 16.3692C19.207 16.3357 19.4864 16.1914 19.6886 15.9642C19.891 15.7368 20.0018 15.4427 20 15.1384V5.23063C20 5.05286 19.9615 4.87719 19.8871 4.71571C19.8128 4.55424 19.7044 4.41079 19.5692 4.29524C19.4366 4.18179 19.2812 4.09787 19.1136 4.04906C18.9458 4.00026 18.7698 3.98768 18.5969 4.01216C16.0562 4.43383 13.732 5.70003 12 7.60603V20Z" stroke="white" stroke-width="2" stroke-linecap="round" stroke-linejoin="round"/>
</svg>
