<svg width="184" height="146" viewBox="0 0 184 146" fill="none" xmlns="http://www.w3.org/2000/svg">
<g id="Frame 1171279444">
<path id="Vector 2999" d="M115.5 2L108.674 20.7393C108.199 22.0439 109.165 23.4238 110.553 23.4238H112.842C114.173 23.4238 115.133 24.699 114.764 25.9776L108.432 47.953C108.064 49.2316 109.023 50.5068 110.354 50.5068H112.848C114.177 50.5068 115.136 51.779 114.771 53.0567L108.426 75.2419C108.06 76.5196 109.02 77.7919 110.349 77.7919H112.831C114.165 77.7919 115.125 79.073 114.751 80.3533L108.446 101.909C108.071 103.189 109.031 104.471 110.365 104.471H112.679C113.783 104.471 114.679 105.366 114.679 106.471V115.37C114.679 116.123 114.253 116.811 113.585 117.159C103.706 122.302 98.997 126.631 92.5 136" stroke="#38ACFF" stroke-width="3" stroke-linecap="round"/>
<path id="Vector 3000" d="M107.5 130H180.5C181.605 130 182.5 129.105 182.5 128V18C182.5 16.8954 181.605 16 180.5 16H127.863" stroke="#38ACFF" stroke-width="3" stroke-linecap="round"/>
<path id="Vector 2995" d="M92.5 22V140" stroke="#38ACFF" stroke-width="5" stroke-linecap="round"/>
<path id="Vector 2994" d="M75.5 16H4.5C3.39543 16 2.5 16.8954 2.5 18V128C2.5 129.105 3.39543 130 4.5 130H75.1033" stroke="#38ACFF" stroke-width="5"/>
<path id="Vector 2998" d="M91.5 23C100.312 12.4189 105.529 7.68502 115.5 2" stroke="#38ACFF" stroke-width="3" stroke-linecap="round"/>
<path id="Vector 3001" d="M75.5 16C82.702 16.0288 88.8133 18.2564 92.5 24" stroke="#38ACFF" stroke-width="5"/>
<path id="Vector 3002" d="M74.5 130C82.1256 130.036 88.5964 132.821 92.5 140" stroke="#38ACFF" stroke-width="5"/>
<path id="Vector 3003" d="M3.5 128.763V18H80.7782L90.6908 21.4298L91.5 133L3.5 128.763Z" fill="#38ACFF"/>
</g>
</svg>
