<svg width="160" height="160" viewBox="0 0 160 160" fill="none" xmlns="http://www.w3.org/2000/svg">
<path d="M28.4487 119.134C28.4487 119.134 32.5077 132.967 57.9379 129.426L62.2513 120.173L54.9378 113.138L34.6967 107.225L28.4443 119.134" fill="#0071C2"/>
<path d="M109.454 93.2199C109.454 98.1159 106.611 99.4068 99.4204 102.089L38.0332 125.03C32.4903 125.028 28 121.059 28 116.157V39.8202C28 34.9143 31.261 33.283 38.0332 30.9412L99.4183 8C104.965 8 109.451 11.981 109.451 16.879L109.454 93.2199Z" fill="#0085E6"/>
<path d="M33.5771 124.093C33.5771 124.093 56.583 129.933 57.9353 129.428C59.2703 128.928 57.0747 120.602 57.0747 120.602L48.754 112.671L40.9984 112.353L39.6375 114.063L33.5771 124.093Z" fill="#0071C2"/>
<path d="M97.9795 13.2871L29.874 38.6055L33.0682 54.8265L43.2026 55.7278L77.0418 50.9085L98.0744 41.1519L113.56 22.3904C110.174 17.0221 105.205 13.6964 97.9795 13.2871Z" fill="#F4F5F5"/>
<path d="M47.9123 44.2187C47.9123 42.7959 48.2013 41.6624 48.7556 40.6962C41.7872 40.1177 35.2027 38.3348 30.4018 34.5073C28.8036 35.8061 28.0186 37.4158 28.0186 39.8186V116.154C28.0186 121.054 32.5218 125.027 38.056 125.027L47.962 121.329C47.9598 121.067 47.9145 120.817 47.9145 120.554L47.9123 44.2187Z" fill="#0071C2"/>
<path d="M131.134 100.739C131.134 105.641 128.283 106.928 121.103 109.614L57.9324 129.431C52.3896 129.431 47.8906 125.458 47.8906 120.556V44.2186C47.8906 39.3187 51.1516 37.6893 57.9324 35.3357L121.103 15.5254C126.64 15.5254 131.134 19.5005 131.134 24.4043V100.739Z" fill="#38ACFF"/>
<path d="M104.976 38.8224C105.039 38.971 105.069 39.1296 105.064 39.2892C105.059 39.4486 105.019 39.6054 104.946 39.7504C104.873 39.8955 104.769 40.0256 104.64 40.1332C104.511 40.2408 104.36 40.3237 104.195 40.377L70.6036 51.8476C70.27 51.9616 69.9011 51.9535 69.574 51.8252C69.2468 51.6969 68.9867 51.458 68.848 51.1589C68.7842 51.0105 68.7535 50.8519 68.7583 50.6925C68.7628 50.5333 68.8025 50.3763 68.875 50.2312C68.9474 50.0862 69.0512 49.9559 69.1799 49.8483C69.3087 49.7405 69.4597 49.6576 69.6244 49.6043L103.22 38.1356C103.554 38.0207 103.923 38.0284 104.251 38.1573C104.578 38.2862 104.838 38.526 104.976 38.8263M104.976 44.2812C105.039 44.4298 105.069 44.5884 105.064 44.748C105.059 44.9074 105.019 45.0642 104.946 45.2093C104.873 45.3543 104.769 45.4844 104.64 45.592C104.511 45.6997 104.36 45.7825 104.195 45.8358L70.6036 57.2868C70.2702 57.4033 69.9003 57.3966 69.5722 57.2679C69.2444 57.1392 68.9845 56.8989 68.848 56.5978C68.7857 56.4501 68.7566 56.2924 68.7622 56.1342C68.7676 55.976 68.8077 55.8203 68.8799 55.6765C68.9524 55.5326 69.0555 55.4034 69.1832 55.2963C69.3111 55.1893 69.461 55.1066 69.6244 55.0531L103.22 43.5826C103.553 43.4665 103.923 43.4734 104.251 43.6021C104.579 43.7306 104.839 43.9707 104.976 44.2712M93.5578 53.843C93.8274 54.4649 93.6635 55.0966 93.1847 55.2599L70.2434 63.09C69.7646 63.2474 69.1607 62.8794 68.8868 62.2635C68.6194 61.6456 68.7898 61.008 69.2686 60.8427L92.2098 53.0165C92.68 52.8591 93.286 53.2251 93.5578 53.843Z" fill="white"/>
<mask id="mask0_1535_5061" style="mask-type:luminance" maskUnits="userSpaceOnUse" x="31" y="60" width="101" height="92">
<path d="M131.682 79.8352L52.9951 60.5977L31.911 132.393L110.598 151.631L131.682 79.8352Z" fill="white"/>
</mask>
<g mask="url(#mask0_1535_5061)">
<path d="M108.603 101.836C112.218 89.5252 104.559 76.9565 91.4948 73.7627C78.431 70.5686 64.9097 77.9593 61.2946 90.2696C59.6598 95.8367 60.3307 101.456 62.7644 106.238L65.4252 116.06C66.1061 118.674 66.1749 120.27 68.4394 120.824L85.3099 124.949C87.5747 125.502 88.6968 124.113 90.5307 122.198L98.5799 114.994C103.308 111.963 106.968 107.403 108.603 101.836Z" fill="#FFE46A"/>
<path d="M61.9612 93.3419C65.6971 80.6203 79.2934 72.6755 93.4306 74.3255C92.7663 74.1036 92.0915 73.9086 91.4084 73.7411C78.3444 70.5473 64.8234 77.9377 61.208 90.2482C60.0184 94.2993 60.0509 98.3779 61.0941 102.141C60.8289 99.2587 61.0952 96.2905 61.9612 93.3419Z" fill="#FFF0B7"/>
<path d="M108.59 101.884C109.885 97.4742 109.732 93.0319 108.404 88.999C108.375 90.9283 108.084 92.847 107.537 94.7109C103.235 109.358 84.1887 117.487 64.6299 113.223L65.4115 116.108C66.0924 118.721 66.1612 120.318 68.4257 120.872L85.2964 124.996C87.561 125.55 88.6831 124.161 90.5172 122.246L98.5664 115.042C103.294 112.011 106.955 107.45 108.59 101.884Z" fill="#FFDA00"/>
<path d="M93.7703 102.309C93.7986 102.296 93.8262 102.285 93.8553 102.271C94.3934 102.001 94.9212 101.491 94.7885 100.866C94.2438 98.3011 90.7526 96.6765 87.8344 96.768C87.6866 96.7727 87.5419 96.7815 87.4002 96.7949C86.1605 95.6528 84.3911 95.0185 82.6291 95.0919C82.4205 95.1006 82.2126 95.1197 82.0064 95.1494C81.2565 94.4579 80.286 93.9673 79.2229 93.8054C76.9978 93.4665 74.642 94.6108 73.6943 96.4744L73.4951 96.5291C74.3332 99.0698 76.3896 106.265 75.8498 109.013C75.1687 112.48 72.1525 121.604 72.1221 121.696L73.9497 122.2C74.0752 121.821 77.0284 112.886 77.7289 109.32C78.0415 107.73 77.7264 104.998 76.7929 101.198C76.3573 99.4244 75.8916 97.8469 75.6039 96.913C76.2813 95.9295 77.6511 95.3322 78.9085 95.5239C79.2915 95.5821 79.659 95.7128 79.9929 95.8986C79.8098 96.0245 79.6403 96.166 79.4865 96.3214C78.5377 97.2822 78.3874 98.7427 79.1367 99.7191C79.5803 100.297 80.3647 100.662 81.184 100.671C81.9473 100.678 82.625 100.385 83.0436 99.866C83.4197 99.399 83.5776 98.7925 83.5125 98.0634C83.4741 97.6437 83.3708 97.231 83.2053 96.8378C83.9373 96.8858 84.645 97.0972 85.2663 97.4534C84.9215 97.6659 84.6292 97.9249 84.3985 98.2265C83.905 98.8726 83.7808 99.7532 84.0741 100.525C84.3268 101.191 84.8641 101.681 85.5482 101.87C85.5711 101.877 85.5941 101.883 85.617 101.888C86.2218 102.036 86.8655 101.939 87.4379 101.612C88.1102 101.229 88.5843 100.584 88.7063 99.887C88.7838 99.444 88.7395 98.9814 88.5838 98.5245C90.5559 98.6724 92.225 99.7018 92.7625 100.776C92.068 101.388 90.6327 102.677 89.0909 104.205C86.2002 107.07 84.4297 109.293 83.8291 110.812C82.4818 114.22 80.1432 123.305 80.044 123.69L81.9029 124.088C81.927 123.994 84.315 114.717 85.625 111.403C86.5595 109.039 91.2901 104.515 93.7703 102.309ZM81.505 98.834C81.4327 98.9239 81.2578 98.9291 81.206 98.9287C81.0007 98.9263 80.7928 98.8405 80.7003 98.7201C80.4602 98.4072 80.5538 97.8428 80.9045 97.4876C81.0188 97.3737 81.1504 97.2751 81.2953 97.195C81.4674 97.5118 81.5781 97.8542 81.6094 98.2049C81.6348 98.4906 81.5968 98.7201 81.505 98.834ZM86.4254 100.135C86.3559 100.175 86.2207 100.234 86.1025 100.203C85.9759 100.168 85.9073 100.032 85.8778 99.9543C85.7854 99.7113 85.8213 99.4104 85.9647 99.2227C86.1301 99.0062 86.371 98.8549 86.6313 98.7492C86.7974 99.053 86.866 99.3527 86.8207 99.6121C86.7864 99.8099 86.6272 100.02 86.4254 100.135Z" fill="#FAAF63"/>
<path d="M84.9667 128.938L66.8265 124.503C65.8122 124.254 64.76 124.809 64.488 125.734L64.2016 126.71C63.9298 127.635 64.5374 128.596 65.5517 128.843L71.4105 130.276C69.4895 130.442 67.2307 131.401 66.7506 133.036L66.5578 133.692C67.5376 135.473 68.1092 138.292 70.5963 138.9L73.9604 139.723C75.9196 140.202 77.8781 138.612 80.1632 137.019L80.356 136.362C80.8361 134.727 79.4905 132.887 77.9592 131.877L83.6918 133.278C84.7061 133.526 85.7584 132.972 86.0304 132.047L86.3168 131.071C86.5885 130.146 85.981 129.186 84.9667 128.938Z" fill="#6B83A5"/>
<path d="M86.2692 129.256L65.5243 124.184C64.51 123.936 63.9025 122.976 64.1742 122.051L64.4609 121.075C64.7326 120.15 65.7849 119.595 66.7992 119.843L87.544 124.915C88.5583 125.163 89.1659 126.123 88.8941 127.049L88.6075 128.024C88.3358 128.95 87.2835 129.504 86.2692 129.256ZM83.1369 135.992L83.4233 135.016C83.6951 134.091 83.0875 133.131 82.0732 132.883L67.1706 129.239C66.1563 128.992 65.104 129.546 64.8322 130.471L64.5456 131.447C64.2739 132.372 64.8814 133.333 65.8957 133.581L80.7984 137.224C81.8129 137.472 82.865 136.918 83.1369 135.992Z" fill="#ABBDDB"/>
</g>
<path d="M97.2691 44.4036L91.2402 65.3394L95.4121 66.3395L101.441 45.4037L97.2691 44.4036Z" fill="#FFE46A"/>
<path d="M64.2094 47.8446L70.3496 68.7534L74.5161 67.7348L68.3759 46.826L64.2094 47.8446Z" fill="#FFE46A"/>
<path d="M110.184 76.4557L126.96 61.1494L130.01 63.9324L113.235 79.2387L110.184 76.4557Z" fill="#FFE46A"/>
</svg>
