<svg width="24" height="24" viewBox="0 0 24 24" fill="none" xmlns="http://www.w3.org/2000/svg">
<g id="Group">
<path id="Vector" d="M6.72 16.64C6.97461 16.5657 7.24829 16.5957 7.48083 16.7232C7.71338 16.8507 7.88574 17.0654 7.96 17.32C8.03426 17.5746 8.00434 17.8483 7.87681 18.0808C7.74929 18.3134 7.53461 18.4857 7.28 18.56C6.78 18.706 6.42 18.86 6.189 19C6.427 19.143 6.803 19.303 7.325 19.452C8.48 19.782 10.133 20 12 20C13.867 20 15.52 19.782 16.675 19.452C17.198 19.303 17.573 19.143 17.811 19C17.581 18.86 17.221 18.706 16.721 18.56C16.4704 18.4825 16.2603 18.3096 16.136 18.0786C16.0117 17.8476 15.9831 17.577 16.0564 17.3251C16.1298 17.0733 16.2991 16.8603 16.528 16.7321C16.7569 16.604 17.0269 16.5709 17.28 16.64C17.948 16.835 18.56 17.085 19.03 17.406C19.465 17.705 20 18.226 20 19C20 19.783 19.452 20.308 19.01 20.607C18.532 20.929 17.907 21.18 17.224 21.375C15.846 21.77 14 22 12 22C10 22 8.154 21.77 6.776 21.375C6.093 21.18 5.468 20.929 4.99 20.607C4.548 20.307 4 19.783 4 19C4 18.226 4.535 17.705 4.97 17.406C5.44 17.085 6.052 16.835 6.72 16.64ZM12 2C13.9891 2 15.8968 2.79018 17.3033 4.1967C18.7098 5.60322 19.5 7.51088 19.5 9.5C19.5 12.068 18.1 14.156 16.65 15.64C16.035 16.268 15.39 16.809 14.797 17.255C14.203 17.701 12.845 18.537 12.845 18.537C12.5874 18.6834 12.2963 18.7604 12 18.7604C11.7037 18.7604 11.4126 18.6834 11.155 18.537C10.4808 18.1467 9.82907 17.7187 9.203 17.255C8.54554 16.7641 7.92611 16.2242 7.35 15.64C5.9 14.156 4.5 12.068 4.5 9.5C4.5 7.51088 5.29018 5.60322 6.6967 4.1967C8.10322 2.79018 10.0109 2 12 2ZM12 4C10.5413 4 9.14236 4.57946 8.11091 5.61091C7.07946 6.64236 6.5 8.04131 6.5 9.5C6.5 11.316 7.496 12.928 8.78 14.24C9.746 15.228 10.81 15.98 11.547 16.442L12 16.716L12.453 16.442C13.189 15.98 14.254 15.228 15.22 14.241C16.504 12.928 17.5 11.317 17.5 9.5C17.5 8.04131 16.9205 6.64236 15.8891 5.61091C14.8576 4.57946 13.4587 4 12 4ZM12 6.5C12.394 6.5 12.7841 6.5776 13.1481 6.72836C13.512 6.87913 13.8427 7.1001 14.1213 7.37868C14.3999 7.65726 14.6209 7.98797 14.7716 8.35195C14.9224 8.71593 15 9.10603 15 9.5C15 9.89397 14.9224 10.2841 14.7716 10.6481C14.6209 11.012 14.3999 11.3427 14.1213 11.6213C13.8427 11.8999 13.512 12.1209 13.1481 12.2716C12.7841 12.4224 12.394 12.5 12 12.5C11.2044 12.5 10.4413 12.1839 9.87868 11.6213C9.31607 11.0587 9 10.2956 9 9.5C9 8.70435 9.31607 7.94129 9.87868 7.37868C10.4413 6.81607 11.2044 6.5 12 6.5ZM12 8.5C11.7348 8.5 11.4804 8.60536 11.2929 8.79289C11.1054 8.98043 11 9.23478 11 9.5C11 9.76522 11.1054 10.0196 11.2929 10.2071C11.4804 10.3946 11.7348 10.5 12 10.5C12.2652 10.5 12.5196 10.3946 12.7071 10.2071C12.8946 10.0196 13 9.76522 13 9.5C13 9.23478 12.8946 8.98043 12.7071 8.79289C12.5196 8.60536 12.2652 8.5 12 8.5Z" fill="#363636"/>
</g>
</svg>
