<svg width="24" height="24" viewBox="0 0 24 24" fill="none" xmlns="http://www.w3.org/2000/svg">
<g id="Group">
<path id="Vector" fill-rule="evenodd" clip-rule="evenodd" d="M10.7721 2.68897C11.1232 2.41586 11.5553 2.26758 12.0001 2.26758C12.4449 2.26758 12.877 2.41586 13.2281 2.68897L21.6121 9.20897C22.3651 9.79597 21.9491 11.001 20.9971 11.001H20.0001V19.001C20.0001 19.5314 19.7894 20.0401 19.4143 20.4152C19.0392 20.7903 18.5305 21.001 18.0001 21.001H6.0001C5.46967 21.001 4.96096 20.7903 4.58589 20.4152C4.21082 20.0401 4.0001 19.5314 4.0001 19.001V11.001H3.0031C2.0501 11.001 1.6361 9.79497 2.3881 9.20997L10.7721 2.68897ZM5.6251 9.22597C5.8541 9.41097 6.0001 9.69397 6.0001 10.011V19.001H18.0001V10.011C18.0001 9.69397 18.1461 9.41097 18.3751 9.22597L12.0001 4.26797L5.6251 9.22597Z" fill="#363636"/>
</g>
</svg>
